<?xml version="1.0" encoding="UTF-8"?>
<svg width="42.375" height="42.375" version="1.1" viewBox="0 0 42.375 42.375" xmlns="http://www.w3.org/2000/svg" xmlns:cc="http://creativecommons.org/ns#" xmlns:dc="http://purl.org/dc/elements/1.1/" xmlns:rdf="http://www.w3.org/1999/02/22-rdf-syntax-ns#">
 <metadata>
  <rdf:RDF>
   <cc:Work rdf:about="">
    <dc:format>image/svg+xml</dc:format>
    <dc:type rdf:resource="http://purl.org/dc/dcmitype/StillImage"/>
    <dc:title/>
   </cc:Work>
  </rdf:RDF>
 </metadata>
 <path d="m41.571 13.218-19.367-12.911c-0.66104-0.40678-1.3665-0.41051-2.0336 0l-19.367 12.911c-0.49658 0.33097-0.80397 0.92224-0.80397 1.5133v12.911c0 0.59118 0.30739 1.1824 0.80405 1.5134l19.367 12.913c0.66104 0.40678 1.3665 0.41051 2.0336 0l19.367-12.913c0.49658-0.33097 0.80405-0.92224 0.80405-1.5134v-12.911c-8.2e-5 -0.5911-0.30747-1.1824-0.80413-1.5133zm-18.563-7.9928 14.259 9.5061-6.361 4.2565-7.8981-5.2733zm-3.6416 0v8.4893l-7.8981 5.2733-6.361-4.2565zm-15.725 12.911 4.5639 3.0504-4.5639 3.0504zm15.725 19.012-14.259-9.5061 6.361-4.2565 7.8981 5.2733zm1.8208-11.658-6.432-4.3037 6.432-4.3037 6.432 4.3037zm1.8208 11.658v-8.4893l7.8981-5.2733 6.361 4.2565zm15.725-12.911-4.5639-3.0504 4.5639-3.0504z" stroke-width=".082764"/>
</svg>
