<?xml version="1.0" encoding="UTF-8"?>
<svg width="42.375" height="42.375" version="1.1" viewBox="0 0 16.95 16.95" xmlns="http://www.w3.org/2000/svg" xmlns:cc="http://creativecommons.org/ns#" xmlns:dc="http://purl.org/dc/elements/1.1/" xmlns:rdf="http://www.w3.org/1999/02/22-rdf-syntax-ns#">
 <metadata>
  <rdf:RDF>
   <cc:Work rdf:about="">
    <dc:format>image/svg+xml</dc:format>
    <dc:type rdf:resource="http://purl.org/dc/dcmitype/StillImage"/>
    <dc:title/>
   </cc:Work>
  </rdf:RDF>
 </metadata>
 <path d="m0 8.475c0-1.5368 0.37856-2.9549 1.1356-4.2544 0.75711-1.2995 1.7854-2.3278 3.0849-3.0849 1.2995-0.75711 2.7177-1.1356 4.2544-1.1356 1.5368 0 2.955 0.37854 4.2544 1.1356 1.2995 0.75711 2.3278 1.7854 3.0849 3.0849 0.75711 1.2995 1.1356 2.7176 1.1356 4.2544 0 1.5368-0.37854 2.9549-1.1356 4.2544-0.75709 1.2995-1.7854 2.3278-3.0849 3.0849-1.2995 0.75711-2.7176 1.1356-4.2544 1.1356-1.5368 0-2.9549-0.37854-4.2544-1.1356-1.2995-0.75711-2.3278-1.7854-3.0849-3.0849-0.75709-1.2995-1.1356-2.7176-1.1356-4.2544zm1.4068 0c0 1.7628 0.59325 3.3166 1.7798 4.6612 0.5424-1.0622 1.4012-2.0735 2.5764-3.034 1.1752-0.96051 2.3222-1.565 3.4408-1.8136-0.1695-0.39549-0.33334-0.75144-0.49155-1.0678-1.9436 0.62151-4.0454 0.93225-6.3054 0.93225-0.4407 0-0.76839-0.00564-0.9831-0.01695 0 0.045206-0.00281 0.1017-0.00848 0.1695-0.0056393 0.0678-0.00847 0.12429-0.00847 0.1695zm0.22035-1.7458c0.24861 0.022594 0.61586 0.0339 1.1018 0.0339 1.8871 0 3.6782-0.25425 5.3732-0.76275-0.85879-1.5255-1.8023-2.7968-2.8306-3.8138-0.89269 0.45201-1.6583 1.0792-2.2967 1.8814-0.63844 0.80229-1.0876 1.6894-1.3475 2.6612zm2.5256 7.3224c1.2769 0.99441 2.7177 1.4916 4.3222 1.4916 0.83621 0 1.6668-0.15819 2.4916-0.4746-0.22599-1.9323-0.66669-3.8024-1.3221-5.6104-1.0396 0.22599-2.0877 0.79665-3.1442 1.712-1.0565 0.9153-1.8391 1.8758-2.3476 2.8815zm2.5934-12.407c0.99441 1.0283 1.9154 2.3108 2.7628 3.8476 1.5368-0.6441 2.695-1.4633 3.4748-2.4578-1.3108-1.0848-2.8137-1.6272-4.5087-1.6272-0.5763 0-1.1526 0.079106-1.7289 0.2373zm3.373 5.0511c0.1695 0.36159 0.36161 0.81924 0.5763 1.373 0.83621-0.079106 1.7458-0.11865 2.729-0.11865 0.70061 0 1.3956 0.01695 2.0848 0.05085-0.09039-1.5368-0.6441-2.9041-1.6611-4.1019-0.73449 1.0961-1.9775 2.0284-3.729 2.7968zm1 2.5594c0.5763 1.6724 0.96615 3.39 1.1696 5.1528 0.89271-0.5763 1.6216-1.3165 2.1866-2.2204 0.56501-0.90399 0.90401-1.8814 1.017-2.9324-0.82489-0.056494-1.5764-0.08475-2.2544-0.08475-0.62149 0-1.3277 0.028256-2.1188 0.08475z" stroke-width=".01695"/>
</svg>
