<?xml version="1.0" encoding="UTF-8" standalone="no"?>
<svg
   xmlns:dc="http://purl.org/dc/elements/1.1/"
   xmlns:cc="http://creativecommons.org/ns#"
   xmlns:rdf="http://www.w3.org/1999/02/22-rdf-syntax-ns#"
   xmlns:svg="http://www.w3.org/2000/svg"
   xmlns="http://www.w3.org/2000/svg"
   xmlns:sodipodi="http://sodipodi.sourceforge.net/DTD/sodipodi-0.dtd"
   xmlns:inkscape="http://www.inkscape.org/namespaces/inkscape"
   viewBox="0 0 43.43948 42.367969"
   height="42.36797"
   width="43.43948"
   xml:space="preserve"
   id="svg2"
   version="1.1"
   sodipodi:docname="GitHub-Mark.svg"
   inkscape:version="1.0.2 (e86c8708, 2021-01-15)"><sodipodi:namedview
     pagecolor="#ffffff"
     bordercolor="#666666"
     borderopacity="1"
     objecttolerance="10"
     gridtolerance="10"
     guidetolerance="10"
     inkscape:pageopacity="0"
     inkscape:pageshadow="2"
     inkscape:window-width="1241"
     inkscape:window-height="768"
     id="namedview252"
     showgrid="false"
     inkscape:zoom="9.8431234"
     inkscape:cx="46.119512"
     inkscape:cy="23.85903"
     inkscape:window-x="337"
     inkscape:window-y="59"
     inkscape:window-maximized="0"
     inkscape:current-layer="svg2"
     fit-margin-top="0"
     fit-margin-left="0"
     fit-margin-right="0"
     fit-margin-bottom="0" /><metadata
     id="metadata8"><rdf:RDF><cc:Work
         rdf:about=""><dc:format>image/svg+xml</dc:format><dc:type
           rdf:resource="http://purl.org/dc/dcmitype/StillImage" /><dc:title></dc:title></cc:Work></rdf:RDF></metadata><defs
     id="defs6" /><g
     transform="matrix(1.3333333,0,0,-1.3333333,-181.75977,592.72755)"
     id="g10"><g
       transform="scale(0.1)"
       id="g12"><path
         id="path14"
         style="fill:#231f20;fill-opacity:1;fill-rule:nonzero;stroke:none;stroke-width:0.133333"
         transform="matrix(7.5000002,0,0,-7.5000002,0,4999.9001)"
         d="m 359.98438,298.67188 c 0.20436,0.14832 0.41989,0.28661 0.61914,0.43945 0.17126,-0.13373 0.39169,-0.30608 0.5625,-0.43945 z" /><path
         id="path16"
         style="fill:#1b1817;fill-opacity:1;fill-rule:evenodd;stroke:none;stroke-width:0.133333"
         transform="matrix(7.5000002,0,0,-7.5000002,0,4999.9001)"
         d="m 203.47656,73.925781 c -11.992,0 -21.71679,9.724704 -21.71679,21.720703 0,9.594666 6.22284,17.736046 14.85351,20.609376 1.08667,0.19867 1.48242,-0.47088 1.48242,-1.04688 0,-0.516 -0.0186,-1.88136 -0.0293,-3.69336 -6.04134,1.312 -7.31641,-2.9121 -7.31641,-2.9121 -0.988,-2.50934 -2.41211,-3.17774 -2.41211,-3.17774 -1.972,-1.34667 0.15039,-1.32031 0.15039,-1.32031 2.18,0.15333 3.32617,2.23828 3.32617,2.23828 1.93734,3.31867 5.08494,2.36069 6.32227,1.80469 0.19733,-1.40267 0.75891,-2.35968 1.3789,-2.90235 -4.82266,-0.54933 -9.89453,-2.41366 -9.89453,-10.736324 0,-2.372 0.847,-4.307506 2.23633,-5.826172 -0.224,-0.549334 -0.96977,-2.757381 0.21289,-5.748047 0,0 1.82333,-0.584724 5.97266,2.224609 1.732,-0.481333 3.59083,-0.721135 5.4375,-0.730468 1.84533,0.0093 3.70283,0.249135 5.4375,0.730468 4.14667,-2.809333 5.9668,-2.224609 5.9668,-2.224609 1.18533,2.990666 0.43946,5.198713 0.21679,5.748047 1.392,1.518666 2.23242,3.454172 2.23242,5.826172 0,8.344004 -5.07868,10.181414 -9.91601,10.718754 0.77867,0.67066 1.47265,1.99481 1.47265,4.02148 0,2.90267 -0.0273,5.24698 -0.0273,5.95898 0,0.58134 0.39281,1.25693 1.49414,1.04493 8.624,-2.87867 14.8418,-11.01409 14.8418,-20.607426 0,-11.995999 -9.72666,-21.720703 -21.72266,-21.720703 z" /></g></g></svg>
