<?xml version="1.0" standalone="no"?>
<!DOCTYPE svg PUBLIC "-//W3C//DTD SVG 20010904//EN"
 "http://www.w3.org/TR/2001/REC-SVG-20010904/DTD/svg10.dtd">
<svg version="1.0" xmlns="http://www.w3.org/2000/svg"
 width="45.000000pt" height="43.000000pt" viewBox="0 0 45.000000 43.000000"
 preserveAspectRatio="xMidYMid meet">

<g transform="translate(0.000000,43.000000) scale(0.100000,-0.100000)"
fill="#000000" stroke="none">
<path d="M134 411 c-166 -76 -171 -312 -7 -395 42 -21 43 -21 43 14 0 19 -5
30 -12 29 -32 -4 -45 3 -62 33 l-19 33 25 -22 c30 -28 64 -30 78 -4 8 17 6 20
-19 26 -61 13 -75 55 -56 172 7 40 8 41 33 31 35 -13 139 -13 174 0 25 10 26
9 33 -31 19 -117 5 -159 -56 -172 -25 -6 -27 -9 -18 -31 5 -14 9 -41 9 -60 0
-19 2 -34 5 -34 3 0 22 9 43 19 162 83 150 325 -20 395 -50 21 -124 20 -174
-3z"/>
</g>
</svg>
