<?xml version="1.0" encoding="UTF-8"?>
<svg width="43.439" height="42.368" version="1.1" viewBox="0 0 43.439 42.368" xml:space="preserve" xmlns="http://www.w3.org/2000/svg" xmlns:cc="http://creativecommons.org/ns#" xmlns:dc="http://purl.org/dc/elements/1.1/" xmlns:rdf="http://www.w3.org/1999/02/22-rdf-syntax-ns#"><metadata><rdf:RDF><cc:Work rdf:about=""><dc:format>image/svg+xml</dc:format><dc:type rdf:resource="http://purl.org/dc/dcmitype/StillImage"/><dc:title/></cc:Work></rdf:RDF></metadata><g transform="matrix(1.3333 0 0 -1.3333 -181.76 592.73)"><g transform="scale(.1)"><path transform="matrix(7.5 0 0 -7.5 0 4999.9)" d="m359.98 298.67c0.20436 0.14832 0.41989 0.28661 0.61914 0.43945 0.17126-0.13373 0.39169-0.30608 0.5625-0.43945z" fill="#231f20"/><path transform="matrix(7.5 0 0 -7.5 0 4999.9)" d="m203.48 73.926c-11.992 0-21.717 9.7247-21.717 21.721 0 9.5947 6.2228 17.736 14.854 20.609 1.0867 0.19867 1.4824-0.47088 1.4824-1.0469 0-0.516-0.0186-1.8814-0.0293-3.6934-6.0413 1.312-7.3164-2.9121-7.3164-2.9121-0.988-2.5093-2.4121-3.1777-2.4121-3.1777-1.972-1.3467 0.15039-1.3203 0.15039-1.3203 2.18 0.15333 3.3262 2.2383 3.3262 2.2383 1.9373 3.3187 5.0849 2.3607 6.3223 1.8047 0.19733-1.4027 0.75891-2.3597 1.3789-2.9024-4.8227-0.54933-9.8945-2.4137-9.8945-10.736 0-2.372 0.847-4.3075 2.2363-5.8262-0.224-0.54933-0.96977-2.7574 0.21289-5.748 0 0 1.8233-0.58472 5.9727 2.2246 1.732-0.48133 3.5908-0.72114 5.4375-0.73047 1.8453 0.0093 3.7028 0.24914 5.4375 0.73047 4.1467-2.8093 5.9668-2.2246 5.9668-2.2246 1.1853 2.9907 0.43946 5.1987 0.21679 5.748 1.392 1.5187 2.2324 3.4542 2.2324 5.8262 0 8.344-5.0787 10.181-9.916 10.719 0.77867 0.67066 1.4726 1.9948 1.4726 4.0215 0 2.9027-0.0273 5.247-0.0273 5.959 0 0.58134 0.39281 1.2569 1.4941 1.0449 8.624-2.8787 14.842-11.014 14.842-20.607 0-11.996-9.7267-21.721-21.723-21.721z" fill="#1b1817" fill-rule="evenodd"/></g></g></svg>
