<?xml version="1.0" encoding="UTF-8"?>
<svg width="43.439" height="42.368" version="1.1" viewBox="0 0 43.439 42.368" xml:space="preserve" xmlns="http://www.w3.org/2000/svg" xmlns:cc="http://creativecommons.org/ns#" xmlns:dc="http://purl.org/dc/elements/1.1/" xmlns:rdf="http://www.w3.org/1999/02/22-rdf-syntax-ns#"><metadata><rdf:RDF><cc:Work rdf:about=""><dc:format>image/svg+xml</dc:format><dc:type rdf:resource="http://purl.org/dc/dcmitype/StillImage"/><dc:title/></cc:Work></rdf:RDF></metadata><g transform="matrix(1.3333 0 0 -1.3333 -181.76 592.73)"><g transform="scale(.1)"><path transform="matrix(7.5 0 0 -7.5 0 4999.9)" d="m359.98 298.67c0.20436 0.14832 0.41989 0.28661 0.61914 0.43945 0.17126-0.13373 0.39169-0.30608 0.5625-0.43945z" fill="#231f20"/><path transform="matrix(7.5 0 0 -7.5 0 4999.9)" d="m203.48 73.926c-11.992 0-21.717 9.7247-21.717 21.721 0 9.5947 6.2228 17.736 14.854 20.609 1.0867 0.19867 1.4824-0.47088 1.4824-1.0469 0-0.516-0.0186-1.8814-0.0293-3.6934-6.0413 1.312-7.3164-2.9121-7.3164-2.9121-0.988-2.5093-2.4121-3.1777-2.4121-3.1777-1.972-1.3467 0.15039-1.3203 0.15039-1.3203 2.18 0.15333 3.3262 2.2383 3.3262 2.2383 1.9373 3.3187 5.0849 2.3607 6.3223 1.8047 0.19733-1.4027 0.75891-2.3597 1.3789-2.9024-4.8227-0.54933-9.8945-2.4137-9.8945-10.736 0-2.372 0.847-4.3075 2.2363-5.8262-0.224-0.54933-0.96977-2.7574 0.21289-5.748 0 0 1.8233-0.58472 5.9727 2.2246 1.732-0.48133 3.5908-0.72114 5.4375-0.73047 1.8453 0.0093 3.7028 0.24914 5.4375 0.73047 4.1467-2.8093 5.9668-2.2246 5.9668-2.2246 1.1853 2.9907 0.43946 5.1987 0.21679 5.748 1.392 1.5187 2.2324 3.4542 2.2324 5.8262 0 8.344-5.0787 10.181-9.916 10.719 0.77867 0.67066 1.4726 1.9948 1.4726 4.0215 0 2.9027-0.0273 5.247-0.0273 5.959 0 0.58134 0.39281 1.2569 1.4941 1.0449 8.624-2.8787 14.842-11.014 14.842-20.607 0-11.996-9.7267-21.721-21.723-21.721z" fill="#1b1817" fill-rule="evenodd"/></g></g><path d="m14.926 42.319c-0.060265-0.020351-0.46851-0.16934-0.90721-0.33108-4.4036-1.6236-8.3967-4.965-10.882-9.1058-3.0163-5.0262-3.8626-10.942-2.3816-16.647 0.69325-2.6706 1.9731-5.3033 3.677-7.5637 1.1448-1.5187 2.73-3.0982 4.259-4.2435 4.8232-3.6131 10.707-5.0482 16.644-4.0597 3.4837 0.58001 6.8803 2.0814 9.7521 4.3105 1.43 1.11 3.2645 3.0443 4.361 4.5982 4.9057 6.9522 5.2625 16.161 0.91067 23.505-2.4798 4.1844-6.2339 7.3554-10.896 9.2037-1.2289 0.48715-1.7788 0.4578-2.1681-0.11571-0.12384-0.18244-0.1334-0.44268-0.14006-3.8117-5e-3 -2.5248-0.03397-3.7481-0.09603-4.0542-0.19285-0.95104-0.48087-1.6328-0.96187-2.2767l-0.28194-0.37745 0.30826-0.04696c1.7861-0.27211 2.8795-0.54254 3.9326-0.97269 2.9904-1.2214 4.7029-3.45 5.3379-6.9466 0.12478-0.68707 0.15542-1.1603 0.16138-2.4917 0.0071-1.5855-4.9e-5 -1.672-0.20196-2.4471-0.32724-1.2562-0.77453-2.1755-1.5413-3.1679l-0.40685-0.52657 0.10996-0.38078c0.20689-0.71646 0.26602-1.1849 0.26478-2.0974-0.001344-0.99187-0.11753-1.7423-0.41427-2.6759-0.18355-0.57747-0.19605-0.59521-0.44832-0.63615-0.51919-0.084252-1.689 0.14955-2.6288 0.52538-0.62466 0.24983-1.7685 0.847-2.4688 1.2889l-0.65713 0.41469-0.84036-0.185c-1.7819-0.39229-2.3691-0.44863-4.6389-0.44513-2.2583 0.0035-2.7269 0.04908-4.529 0.44074l-0.87658 0.19051-0.65743-0.41527c-1.9027-1.2019-4.0883-1.9787-5.1035-1.8139-0.25807 0.041879-0.26998 0.058208-0.44392 0.60883-0.52459 1.6606-0.57708 3.4681-0.14047 4.8367l0.10998 0.34474-0.35641 0.44048c-0.7506 0.92765-1.3664 2.1887-1.6358 3.3496-0.18515 0.79786-0.25736 2.6602-0.1457 3.7576 0.50951 5.0076 3.0439 7.7923 7.9886 8.7776 0.49283 0.09821 1.0821 0.20054 1.3094 0.2274l0.41336 0.04884-0.35272 0.48549c-0.39641 0.54564-0.6861 1.213-0.82758 1.9066l-0.09533 0.46736-0.43952 0.16437c-1.0777 0.40302-2.1184 0.48801-3.052 0.24924-1.091-0.27902-1.8359-0.86194-2.6729-2.0915-1.1098-1.6304-2.175-2.329-3.5511-2.329-0.48265 0-0.62406 0.02628-0.74874 0.13916-0.32843 0.29733-0.095655 0.67887 0.77676 1.2732 0.47666 0.32471 1.116 0.97438 1.4728 1.4966 0.13237 0.19372 0.38659 0.67036 0.56494 1.0592 0.5253 1.1453 0.62571 1.3276 0.98868 1.7957 0.82839 1.0682 2.0496 1.6949 3.6526 1.8743 0.74123 0.08297 1.6254 0.04158 2.6239-0.1228l0.26236-0.04319 0.04809 0.78605c0.02645 0.43233 0.04737 1.2822 0.04649 1.8887-2e-3 1.3492-0.09574 1.6423-0.59858 1.8705-0.30594 0.13886-0.56773 0.17099-0.78774 0.0967z" fill-rule="evenodd" stroke-width=".073048"/></svg>
