<?xml version="1.0" encoding="UTF-8"?>
<svg width="31.825pt" height="31.781pt" version="1.0" viewBox="0 0 31.825 31.781" xmlns="http://www.w3.org/2000/svg" xmlns:cc="http://creativecommons.org/ns#" xmlns:dc="http://purl.org/dc/elements/1.1/" xmlns:rdf="http://www.w3.org/1999/02/22-rdf-syntax-ns#">
 <metadata>
  <rdf:RDF>
   <cc:Work rdf:about="">
    <dc:format>image/svg+xml</dc:format>
    <dc:type rdf:resource="http://purl.org/dc/dcmitype/StillImage"/>
    <dc:title/>
   </cc:Work>
  </rdf:RDF>
 </metadata>
 <g transform="matrix(.0059597 0 0 -.0059597 -.089396 32.109)">
  <path d="m278 5376c-105-38-201-127-240-224l-23-57v-4750l23-57c31-76 105-156 184-199l63-34h4800l62 34c77 41 146 113 181 189l27 57v4770l-27 57c-35 76-109 153-183 192l-60 31-2385 2c-1945 2-2392 0-2422-11zm1051-735c84-26 137-59 202-128 63-66 89-111 114-197 23-77 16-199-14-278-96-249-387-368-624-255-294 139-358 521-126 747 119 115 295 159 448 111zm2538-1207c45-8 120-28 167-45 285-103 437-316 509-714 22-117 22-139 22-980v-860h-790l-6 780c-5 710-7 785-23 840-28 93-66 162-113 206-65 60-121 81-235 87-223 11-360-58-438-223-64-137-64-135-70-950l-5-740h-790l-3 1278-2 1277h770v-355l27 40c135 202 357 342 590 374 84 12 280 4 390-15zm-2269-1321-3-1278h-790l-3 1278-2 1277h800z"/>
 </g>
</svg>
